<svg version="1.1" xmlns="http://www.w3.org/2000/svg" xmlns:xlink="http://www.w3.org/1999/xlink" viewBox="185 281 232 113">
<path d=" 
M173.5929,262.6376
L428.7110,262.6376
L428.7110,412.8738
L173.5929,412.8738
L173.5929,262.6376
Z" 
style="fill: none; "/>
<defs>
  <linearGradient id="grad1" >
    <stop offset="0.0000%" stop-color="#00562a" stop-opacity="1.0000"/>
    <stop offset="14.0000%" stop-color="#043344" stop-opacity="1.0000"/>
    <stop offset="50.0000%" stop-color="#142848" stop-opacity="1.0000"/>
    <stop offset="89.0000%" stop-color="#003841" stop-opacity="1.0000"/>
    <stop offset="100.0000%" stop-color="#00562a" stop-opacity="1.0000"/>
  </linearGradient>
  <linearGradient xlink:href="#grad1" id="grad2" x1="0" y1="0" x2="0" y2="1" gradientTransform="rotate(180 .5 .5)" gradientUnits="objectBoundingBox" >
  </linearGradient>
</defs>
<path d=" 
M230.0260,392.8766
C216.0122,379.3782 207.8281,359.9010 207.8281,337.6686
C207.8281,315.4363 216.6755,295.5258 230.6640,282.0260
C234.5772,282.1251 238.4904,282.2240 242.4036,282.3231
C226.8423,294.1795 216.5731,314.5383 216.5731,337.6686
C216.5731,360.6757 226.7330,380.9402 242.1555,392.8212
C238.3402,392.9964 233.8414,392.7014 230.0260,392.8766
Z" 
style="fill: url(#grad2); "/>
<defs>
  <linearGradient id="grad3" >
    <stop offset="0.0000%" stop-color="#00562a" stop-opacity="1.0000"/>
    <stop offset="14.0000%" stop-color="#043344" stop-opacity="1.0000"/>
    <stop offset="50.0000%" stop-color="#142848" stop-opacity="1.0000"/>
    <stop offset="89.0000%" stop-color="#003841" stop-opacity="1.0000"/>
    <stop offset="100.0000%" stop-color="#00562a" stop-opacity="1.0000"/>
  </linearGradient>
  <linearGradient xlink:href="#grad3" id="grad4" x1="0" y1="0" x2="0" y2="1" gradientTransform="rotate(180 .5 .5)" gradientUnits="objectBoundingBox" >
  </linearGradient>
</defs>
<path d=" 
M206.7753,294.0090
C186.0034,326.4499 186.6560,360.2780 205.8052,393.3469
C215.8295,393.1529 225.8538,392.9588 235.8781,392.7648
C205.6287,366.4674 195.6394,332.0669 206.7753,294.0090
Z" 
style="fill: url(#grad4); "/>
<defs>
  <linearGradient id="grad5" >
    <stop offset="0.0000%" stop-color="#00562a" stop-opacity="1.0000"/>
    <stop offset="14.0000%" stop-color="#043344" stop-opacity="1.0000"/>
    <stop offset="50.0000%" stop-color="#142848" stop-opacity="1.0000"/>
    <stop offset="89.0000%" stop-color="#003841" stop-opacity="1.0000"/>
    <stop offset="100.0000%" stop-color="#00562a" stop-opacity="1.0000"/>
  </linearGradient>
  <linearGradient xlink:href="#grad5" id="grad6" x1="0" y1="0" x2="0" y2="1" gradientTransform="rotate(180 .5 .5)" gradientUnits="objectBoundingBox" >
  </linearGradient>
</defs>
<path d=" 
M372.1576,282.5414
C385.8919,296.0311 394.5570,315.7625 394.5570,337.7500
C394.5570,359.9158 385.7530,379.7923 371.8249,393.2905
C367.9217,393.1916 364.0184,393.0929 360.1151,392.9941
C375.6015,381.1232 385.8119,360.8142 385.8119,337.7500
C385.8119,314.8083 375.7112,294.5918 360.3626,282.6965
C364.2943,282.6448 368.2259,282.5931 372.1576,282.5414
Z" 
style="fill: url(#grad6); "/>
<defs>
  <linearGradient id="grad7" >
    <stop offset="0.0000%" stop-color="#00562a" stop-opacity="1.0000"/>
    <stop offset="14.0000%" stop-color="#043344" stop-opacity="1.0000"/>
    <stop offset="50.0000%" stop-color="#142848" stop-opacity="1.0000"/>
    <stop offset="89.0000%" stop-color="#003841" stop-opacity="1.0000"/>
    <stop offset="100.0000%" stop-color="#00562a" stop-opacity="1.0000"/>
  </linearGradient>
  <linearGradient xlink:href="#grad7" id="grad8" x1="0" y1="0" x2="0" y2="1" gradientTransform="rotate(-0 .5 .5)" gradientUnits="objectBoundingBox" >
  </linearGradient>
</defs>
<path d=" 
M395.5287,381.4210
C416.3006,348.9802 415.6480,315.1521 396.4988,282.0832
C386.4745,282.2771 376.4502,282.4712 366.4259,282.6652
C396.6753,308.9626 406.6646,343.3631 395.5287,381.4210
Z" 
style="fill: url(#grad8); "/>
<path d=" 
M348.8809,312.5942
L348.8809,336.8359
L342.0837,336.8359
L342.3030,320.0987
L348.8809,312.5942
Z" 
style="fill-rule: evenodd; fill: #142848; "/>
<path d=" 
M258.3859,334.9301
L256.5808,336.7491
L251.1244,336.7491
L251.1244,338.1681
L257.2010,338.1681
L255.5473,339.8219
L251.1244,339.8219
L251.1244,343.0599
L248.6716,344.4517
L248.6716,334.9301
L258.3859,334.9301
Z
Z
M261.7620,343.0599
L259.3091,344.4517
L259.3091,334.9301
L261.7620,334.9301
L261.7620,343.0599
Z
Z
M273.6258,343.0460
L271.7793,343.0460
L266.0060,338.3059
L266.0060,343.0460
L263.5532,344.4517
L263.5532,334.9301
L265.3033,334.9301
L271.1730,339.7666
L271.1730,334.9301
L273.6258,334.9301
L273.6258,343.0460
Z
Z
M285.0350,334.9301
L283.2299,336.7491
L277.7734,336.7491
L277.7734,341.2409
L284.7455,341.2409
L282.9268,343.0599
L277.1671,343.0599
L275.3206,341.2409
L275.3206,336.7857
L277.1671,334.9301
L285.0350,334.9301
Z
Z
M296.0444,341.1998
L294.1980,343.0460
L287.4325,343.0460
L285.5860,341.1998
L285.5860,336.7766
L287.4325,334.9301
L294.1980,334.9301
L296.0444,336.7766
L296.0444,341.1998
Z
Z
M293.5919,341.2409
L293.5919,336.7352
L288.0388,336.7352
L288.0388,341.2409
L293.5919,341.2409
Z
Z
M308.0877,343.0460
L305.6349,343.0460
L305.6349,341.0549
L304.8931,340.3315
L300.2060,340.3315
L300.2060,343.0460
L297.7532,344.4517
L297.7532,334.9301
L306.2412,334.9301
L308.0877,337.4240
L306.6820,339.3119
L308.0877,340.7173
L308.0877,343.0460
Z
Z
M305.5660,337.5873
L304.9183,336.7352
L300.2060,336.7352
L300.2060,338.4850
L304.9160,338.4850
L305.5660,337.5873
Z
Z
M320.1032,337.4240
L317.9534,340.3315
L312.2215,340.3315
L312.2215,343.0460
L309.7687,344.4517
L309.7687,334.9301
L318.2567,334.9301
L320.1032,337.4240
Z
Z
M317.5815,337.5896
L316.9338,336.7352
L312.2215,336.7352
L312.2215,338.4850
L316.9361,338.4850
L317.5815,337.5896
Z" 
style="fill-rule: evenodd; fill: #142848; "/>
<path d=" 
M343.5804,342.2648
L358.1929,328.0085
L363.0831,332.9399
L363.4844,319.8805
L350.1467,319.8946
L355.1973,324.9877
L343.9941,335.9179
L334.8654,327.1912
C329.5332,332.7691 324.0990,338.0262 318.5122,343.4770
L321.4829,346.5220
L334.7976,333.5321
L340.6776,339.1534
L340.6096,339.2197
L343.5804,342.2648
Z" 
style="fill-rule: evenodd; fill: #006430; "/>
<path d=" 
M241.1263,329.3099
L238.8657,319.8382
L240.8219,319.8382
L242.2508,326.3437
L243.9819,319.8382
L246.2556,319.8382
L247.9161,326.4540
L249.3694,319.8382
L251.2947,319.8382
L248.9944,329.3099
L246.9657,329.3099
L245.0801,322.2286
L243.1990,329.3099
L241.1263,329.3099
Z
Z
M252.2758,329.3099
L252.2758,319.8382
L254.1900,319.8382
L254.1900,323.5652
L257.9369,323.5652
L257.9369,319.8382
L259.8489,319.8382
L259.8489,329.3099
L257.9369,329.3099
L257.9369,325.1684
L254.1900,325.1684
L254.1900,329.3099
L252.2758,329.3099
Z
Z
M261.7673,329.3099
L261.7673,319.8382
L263.6793,319.8382
L263.6793,329.3099
L261.7673,329.3099
Z
Z
M267.6334,329.3099
L267.6334,321.4414
L264.8239,321.4414
L264.8239,319.8382
L272.3505,319.8382
L272.3505,321.4414
L269.5476,321.4414
L269.5476,329.3099
L267.6334,329.3099
Z
Z
M273.5853,329.3099
L273.5853,319.8382
L280.6067,319.8382
L280.6067,321.4414
L275.4972,321.4414
L275.4972,323.5408
L280.2518,323.5408
L280.2518,325.1353
L275.4972,325.1353
L275.4972,327.7134
L280.7875,327.7134
L280.7875,329.3099
L273.5853,329.3099
Z
Z
M281.9254,326.2292
L283.7866,326.0460
C283.8969,326.6725 284.1242,327.1311 284.4680,327.4243
C284.8099,327.7154 285.2708,327.8633 285.8530,327.8633
C286.4682,327.8633 286.9336,327.7332 287.2446,327.4707
C287.5575,327.2105 287.7143,326.9061 287.7143,326.5577
C287.7143,326.3326 287.6479,326.1430 287.5158,325.9865
C287.3857,325.8278 287.1564,325.6911 286.8276,325.5763
C286.6051,325.4970 286.0934,325.3603 285.2972,325.1616
C284.2719,324.9082 283.5530,324.5950 283.1406,324.2245
C282.5583,323.7041 282.2672,323.0691 282.2672,322.3191
C282.2672,321.8363 282.4038,321.3865 282.6774,320.9652
C282.9509,320.5463 283.3455,320.2265 283.8594,320.0060
C284.3753,319.7874 284.9950,319.6772 285.7229,319.6772
C286.9138,319.6772 287.8070,319.9374 288.4088,320.4578
C289.0086,320.9805 289.3241,321.6753 289.3550,322.5464
L287.4430,322.6300
C287.3614,322.1427 287.1850,321.7921 286.9160,321.5803
C286.6467,321.3666 286.2434,321.2606 285.7054,321.2606
C285.1495,321.2606 284.7129,321.3731 284.3997,321.6025
C284.1968,321.7482 284.0953,321.9443 284.0953,322.1889
C284.0953,322.4140 284.1902,322.6059 284.3799,322.7647
C284.6203,322.9676 285.2067,323.1794 286.1374,323.3976
C287.0680,323.6182 287.7562,323.8452 288.2015,324.0791
C288.6471,324.3149 288.9955,324.6347 289.2489,325.0426
C289.5004,325.4508 289.6262,325.9534 289.6262,326.5512
C289.6262,327.0934 289.4763,327.6031 289.1741,328.0748
C288.8719,328.5490 288.4465,328.9020 287.8951,329.1313
C287.3438,329.3629 286.6558,329.4774 285.8332,329.4774
C284.6356,329.4774 283.7160,329.2019 283.0742,328.6483
C282.4328,328.0946 282.0489,327.2876 281.9254,326.2292
Z
Z
M293.3663,329.3099
L293.3663,321.4414
L290.5569,321.4414
L290.5569,319.8382
L298.0834,319.8382
L298.0834,321.4414
L295.2805,321.4414
L295.2805,329.3099
L293.3663,329.3099
Z
Z
M298.6917,324.6324
C298.6917,323.6666 298.8351,322.8574 299.1240,322.2023
C299.3403,321.7215 299.6334,321.2872 300.0061,320.9034
C300.3789,320.5219 300.7868,320.2373 301.2301,320.0522
C301.8212,319.8008 302.5003,319.6772 303.2722,319.6772
C304.6680,319.6772 305.7840,320.1094 306.6219,320.9763
C307.4598,321.8406 307.8791,323.0447 307.8791,324.5862
C307.8791,326.1166 307.4621,327.3120 306.6307,328.1763
C305.7993,329.0386 304.6878,329.4709 303.2986,329.4709
C301.8895,329.4709 300.7692,329.0409 299.9378,328.1831
C299.1064,327.3231 298.6917,326.1387 298.6917,324.6324
Z
Z
M300.6612,324.5686
C300.6612,325.6404 300.9104,326.4540 301.4042,327.0076
C301.9005,327.5612 302.5290,327.8367 303.2921,327.8367
C304.0529,327.8367 304.6791,327.5634 305.1686,327.0121
C305.6562,326.4627 305.9008,325.6404 305.9008,324.5420
C305.9008,323.4572 305.6627,322.6479 305.1884,322.1118
C304.7122,321.5781 304.0792,321.3113 303.2921,321.3113
C302.5026,321.3113 301.8674,321.5826 301.3843,322.1229
C300.9036,322.6632 300.6612,323.4770 300.6612,324.5686
Z
Z
M309.3897,329.3099
L309.3897,319.8382
L311.2509,319.8382
L315.1278,326.1628
L315.1278,319.8382
L316.9052,319.8382
L316.9052,329.3099
L314.9844,329.3099
L311.1670,323.1329
L311.1670,329.3099
L309.3897,329.3099
Z
Z
M318.9274,329.3099
L318.9274,319.8382
L325.9488,319.8382
L325.9488,321.4414
L320.8394,321.4414
L320.8394,323.5408
L325.5939,323.5408
L325.5939,325.1353
L320.8394,325.1353
L320.8394,327.7134
L326.1297,327.7134
L326.1297,329.3099
L318.9274,329.3099
Z" 
style="fill-rule: evenodd; fill: #00562a; "/>
<path d=" 
M238.9358,332.4445
L323.9303,332.4445" 
style="stroke-width: 1.0001; stroke: #142848; stroke-dasharray: none; stroke-linecap: butt; stroke-linejoin: miter; fill: none; "/>
<path d=" 
M328.1002,326.6146
L328.1002,334.0766
C325.6984,336.4663 323.2725,338.8353 320.8181,341.2285
L320.9083,334.5632
L328.1002,326.6146
Z" 
style="fill-rule: evenodd; fill: #142848; "/>
<path d=" 
M235.9945,361.3734
L235.9945,359.7970
L237.3982,359.7970
C237.4798,359.7970 237.5427,359.7690 237.5875,359.7137
C237.6323,359.6587 237.6547,359.5785 237.6547,359.4747
C237.6547,359.3818 237.6323,359.2905 237.5867,359.2009
C237.5408,359.1096 237.4710,359.0169 237.3758,358.9209
L236.5923,358.1563
C236.4143,357.9786 236.2717,357.7490 236.1657,357.4675
C236.0597,357.1875 236.0061,356.8980 236.0061,356.5990
C236.0061,356.3096 236.0364,356.0485 236.0974,355.8141
C236.1577,355.5782 236.2482,355.3784 236.3678,355.2117
C236.4795,355.0527 236.6175,354.9396 236.7808,354.8733
C236.9441,354.8072 237.2085,354.7743 237.5751,354.7743
L238.5062,354.7743
L238.5062,356.2860
L237.4379,356.2860
C237.2902,356.2860 237.1881,356.3050 237.1317,356.3442
C237.0764,356.3819 237.0481,356.4482 237.0481,356.5392
C237.0481,356.6290 237.0696,356.7169 237.1133,356.8051
C237.1569,356.8915 237.2250,356.9797 237.3154,357.0695
L238.0813,357.8071
C238.2999,358.0211 238.4663,358.2760 238.5799,358.5716
C238.6936,358.8659 238.7509,359.1867 238.7509,359.5346
C238.7509,359.8333 238.7120,360.1086 238.6344,360.3634
C238.5567,360.6199 238.4478,360.8260 238.3098,360.9865
C238.1882,361.1248 238.0513,361.2240 237.8996,361.2838
C237.7480,361.3436 237.5067,361.3734 237.1765,361.3734
L237.1133,361.3734
L235.9945,361.3734
Z
Z
M239.1786,361.3734
L239.1786,358.9084
C239.1786,358.2162 239.2934,357.6609 239.5219,357.2393
C239.7501,356.8192 240.0477,356.6086 240.4142,356.6086
C240.5792,356.6086 240.7348,356.6605 240.8797,356.7660
C241.0254,356.8697 241.1538,357.0222 241.2655,357.2203
C241.3811,357.0253 241.5115,356.8728 241.6552,356.7674
C241.8001,356.6619 241.9461,356.6086 242.0946,356.6086
C242.4776,356.6086 242.7849,356.8161 243.0170,357.2331
C243.2483,357.6484 243.3640,358.2068 243.3640,358.9084
L243.3640,361.3734
L242.4668,361.3734
L242.4668,358.6819
C242.4668,358.4914 242.4319,358.3341 242.3619,358.2099
C242.2911,358.0858 242.2026,358.0228 242.0938,358.0228
C241.9858,358.0228 241.8953,358.0858 241.8233,358.2099
C241.7516,358.3341 241.7156,358.4914 241.7156,358.6819
L241.7156,361.3734
L240.8241,361.3734
L240.8241,358.6819
C240.8241,358.4914 240.7884,358.3341 240.7164,358.2099
C240.6444,358.0858 240.5531,358.0228 240.4431,358.0228
C240.3346,358.0228 240.2461,358.0858 240.1750,358.2099
C240.1050,358.3341 240.0701,358.4914 240.0701,358.6819
L240.0701,361.3734
L239.1786,361.3734
Z
Z
M245.7397,361.3734
L245.7397,359.1380
C245.7397,358.7950 245.6929,358.5339 245.6008,358.3593
C245.5072,358.1847 245.3683,358.0965 245.1847,358.0965
C245.0330,358.0965 244.9094,358.1816 244.8142,358.3531
C244.7201,358.5229 244.6724,358.7462 244.6724,359.0232
C244.6724,359.3095 244.7220,359.5360 244.8221,359.7060
C244.9213,359.8741 245.0574,359.9592 245.2303,359.9592
C245.2723,359.9592 245.3207,359.9498 245.3751,359.9308
C245.4307,359.9135 245.5024,359.8807 245.5920,359.8350
L245.5920,361.3640
C245.5180,361.3890 245.4480,361.4066 245.3808,361.4190
C245.3148,361.4315 245.2527,361.4380 245.1963,361.4380
C244.7745,361.4380 244.4272,361.2098 244.1543,360.7551
C243.8813,360.3005 243.7441,359.7233 243.7441,359.0232
C243.7441,358.3233 243.8813,357.7459 244.1543,357.2912
C244.4272,356.8365 244.7745,356.6086 245.1963,356.6086
C245.4868,356.6086 245.7493,356.7297 245.9846,356.9703
C246.2199,357.2110 246.3968,357.5412 246.5144,357.9582
C246.5600,358.1186 246.5932,358.2964 246.6125,358.4914
C246.6329,358.6864 246.6425,358.9965 246.6425,359.4197
L246.6425,361.3734
L245.7397,361.3734
Z
Z
M247.1431,361.3734
L247.1431,356.6996
L247.9774,356.6996
L247.9774,357.3998
C248.0686,357.1574 248.1863,356.9797 248.3300,356.8680
C248.4748,356.7563 248.6585,356.6996 248.8830,356.6996
L248.9910,356.6996
L248.9910,358.1138
L248.9511,358.1138
C248.6225,358.1138 248.3864,358.2320 248.2404,358.4665
C248.0958,358.7023 248.0227,359.0844 248.0227,359.6162
L248.0227,361.3734
L247.1431,361.3734
Z
Z
M249.2623,355.5561
L250.1680,355.5561
L250.1680,356.6996
L250.8826,356.6996
L250.8826,358.0685
L250.1680,358.0685
L250.1680,359.5439
C250.1680,359.7092 250.1904,359.8271 250.2351,359.8946
C250.2799,359.9623 250.3576,359.9955 250.4693,359.9955
L250.8826,359.9955
L250.8826,361.3734
L250.5461,361.3734
C250.1059,361.3734 249.7822,361.2178 249.5741,360.9062
C249.3663,360.5930 249.2623,360.1040 249.2623,359.4370
L249.2623,355.5561
Z
Z
M252.9828,354.7743
L253.9996,354.7743
L253.9996,359.1553
C253.9996,359.3803 254.0356,359.5487 254.1067,359.6635
C254.1776,359.7766 254.2836,359.8333 254.4245,359.8333
L255.2128,359.8333
L255.2128,361.3734
L254.4069,361.3734
C253.9247,361.3734 253.5673,361.1925 253.3329,360.8323
C253.0996,360.4706 252.9828,359.9152 252.9828,359.1649
L252.9828,354.7743
Z
Z
M256.4229,359.0232
C256.4229,359.2874 256.4742,359.5139 256.5765,359.6995
C256.6794,359.8852 256.8027,359.9782 256.9467,359.9782
C257.0936,359.9782 257.2177,359.8852 257.3229,359.6995
C257.4269,359.5139 257.4794,359.2874 257.4794,359.0232
C257.4794,358.7604 257.4269,358.5339 257.3229,358.3483
C257.2177,358.1626 257.0936,358.0699 256.9467,358.0699
C256.8027,358.0699 256.6794,358.1626 256.5765,358.3483
C256.4742,358.5339 256.4229,358.7604 256.4229,359.0232
Z
Z
M255.4886,359.0325
C255.4886,358.7071 255.5257,358.3987 255.5986,358.1093
C255.6714,357.8182 255.7794,357.5540 255.9212,357.3133
C256.0603,357.0868 256.2177,356.9122 256.3926,356.7909
C256.5686,356.6699 256.7534,356.6086 256.9467,356.6086
C257.1440,356.6086 257.3317,356.6699 257.5094,356.7909
C257.6863,356.9122 257.8439,357.0868 257.9800,357.3133
C258.1189,357.5446 258.2237,357.8057 258.2966,358.0997
C258.3686,358.3925 258.4046,358.7037 258.4046,359.0325
C258.4046,359.3614 258.3686,359.6729 258.2966,359.9654
C258.2237,360.2597 258.1189,360.5207 257.9800,360.7520
C257.8439,360.9785 257.6863,361.1531 257.5094,361.2742
C257.3317,361.3955 257.1440,361.4567 256.9467,361.4567
C256.7534,361.4567 256.5686,361.3955 256.3926,361.2742
C256.2177,361.1531 256.0603,360.9785 255.9212,360.7520
C255.7794,360.5114 255.6714,360.2472 255.5986,359.9561
C255.5257,359.6666 255.4886,359.3582 255.4886,359.0325
Z
Z
M260.6916,361.3734
L260.6916,359.1380
C260.6916,358.7950 260.6451,358.5339 260.5527,358.3593
C260.4594,358.1847 260.3205,358.0965 260.1366,358.0965
C259.9852,358.0965 259.8616,358.1816 259.7664,358.3531
C259.6723,358.5229 259.6246,358.7462 259.6246,359.0232
C259.6246,359.3095 259.6742,359.5360 259.7743,359.7060
C259.8735,359.8741 260.0096,359.9592 260.1825,359.9592
C260.2242,359.9592 260.2726,359.9498 260.3273,359.9308
C260.3826,359.9135 260.4546,359.8807 260.5442,359.8350
L260.5442,361.3640
C260.4702,361.3890 260.4002,361.4066 260.3330,361.4190
C260.2670,361.4315 260.2049,361.4380 260.1485,361.4380
C259.7267,361.4380 259.3794,361.2098 259.1065,360.7551
C258.8335,360.3005 258.6963,359.7233 258.6963,359.0232
C258.6963,358.3233 258.8335,357.7459 259.1065,357.2912
C259.3794,356.8365 259.7267,356.6086 260.1485,356.6086
C260.4390,356.6086 260.7015,356.7297 260.9368,356.9703
C261.1721,357.2110 261.3489,357.5412 261.4663,357.9582
C261.5122,358.1186 261.5451,358.2964 261.5647,358.4914
C261.5851,358.6864 261.5947,358.9965 261.5947,359.4197
L261.5947,361.3734
L260.6916,361.3734
Z
Z
M263.8040,361.3734
L263.8040,358.7700
C263.8040,358.5512 263.7652,358.3735 263.6875,358.2366
C263.6096,358.0997 263.5087,358.0322 263.3851,358.0322
C263.2626,358.0322 263.1617,358.0997 263.0829,358.2366
C263.0041,358.3735 262.9644,358.5512 262.9644,358.7700
L262.9644,361.3734
L262.0613,361.3734
L262.0613,359.0042
C262.0613,358.2729 262.1829,357.6909 262.4247,357.2583
C262.6668,356.8255 262.9868,356.6086 263.3862,356.6086
C263.6019,356.6086 263.8052,356.6854 263.9937,356.8414
C264.1822,356.9970 264.3418,357.2172 264.4710,357.5021
C264.5544,357.6923 264.6147,357.9032 264.6527,358.1345
C264.6904,358.3641 264.7100,358.6550 264.7100,359.0042
L264.7100,361.3734
L263.8040,361.3734
Z
Z
M265.1278,360.0505
L266.2186,360.0505
C266.2739,360.0505 266.3147,360.0363 266.3430,360.0062
C266.3700,359.9782 266.3838,359.9325 266.3838,359.8710
C266.3838,359.8333 266.3759,359.7987 266.3612,359.7642
C266.3459,359.7310 266.3263,359.7043 266.3039,359.6871
L265.8832,359.4008
C265.6429,359.2372 265.4660,359.0405 265.3506,358.8109
C265.2350,358.5796 265.1766,358.3091 265.1766,357.9945
C265.1766,357.5917 265.2670,357.2756 265.4467,357.0457
C265.6276,356.8147 265.8773,356.6996 266.1962,356.6996
L267.1818,356.6996
L267.1818,357.9582
L266.2067,357.9582
C266.1670,357.9582 266.1338,357.9755 266.1077,358.0087
C266.0814,358.0432 266.0678,358.0858 266.0678,358.1376
C266.0678,358.1722 266.0757,358.2068 266.0902,358.2414
C266.1058,358.2777 266.1242,358.3012 266.1446,358.3137
L266.5460,358.5889
C266.8229,358.7763 267.0242,358.9855 267.1486,359.2137
C267.2731,359.4433 267.3354,359.7185 267.3354,360.0411
C267.3354,360.2659 267.3043,360.4706 267.2430,360.6545
C267.1809,360.8385 267.0934,360.9944 266.9797,361.1203
C266.8921,361.2098 266.7909,361.2742 266.6761,361.3136
C266.5607,361.3530 266.3643,361.3734 266.0854,361.3734
L265.1278,361.3734
L265.1278,360.0505
Z
Z
M267.5920,362.7797
L267.9165,359.9498
L268.9053,359.9498
L268.2927,362.7797
L267.5920,362.7797
Z
Z
M270.9763,361.3734
L270.9763,359.7970
L272.3800,359.7970
C272.4616,359.7970 272.5245,359.7690 272.5693,359.7137
C272.6141,359.6587 272.6365,359.5785 272.6365,359.4747
C272.6365,359.3818 272.6141,359.2905 272.5685,359.2009
C272.5226,359.1096 272.4528,359.0169 272.3576,358.9209
L271.5741,358.1563
C271.3961,357.9786 271.2535,357.7490 271.1475,357.4675
C271.0414,357.1875 270.9882,356.8980 270.9882,356.5990
C270.9882,356.3096 271.0182,356.0485 271.0791,355.8141
C271.1395,355.5782 271.2300,355.3784 271.3496,355.2117
C271.4613,355.0527 271.5993,354.9396 271.7626,354.8733
C271.9259,354.8072 272.1903,354.7743 272.5569,354.7743
L273.4880,354.7743
L273.4880,356.2860
L272.4197,356.2860
C272.2720,356.2860 272.1699,356.3050 272.1135,356.3442
C272.0582,356.3819 272.0299,356.4482 272.0299,356.5392
C272.0299,356.6290 272.0514,356.7169 272.0951,356.8051
C272.1387,356.8915 272.2068,356.9797 272.2972,357.0695
L273.0631,357.8071
C273.2817,358.0211 273.4481,358.2760 273.5617,358.5716
C273.6754,358.8659 273.7327,359.1867 273.7327,359.5346
C273.7327,359.8333 273.6938,360.1086 273.6162,360.3634
C273.5385,360.6199 273.4296,360.8260 273.2916,360.9865
C273.1700,361.1248 273.0331,361.2240 272.8814,361.2838
C272.7298,361.3436 272.4888,361.3734 272.1583,361.3734
L272.0951,361.3734
L270.9763,361.3734
Z
Z
M274.1604,361.3734
L274.1604,358.9084
C274.1604,358.2162 274.2752,357.6609 274.5037,357.2393
C274.7319,356.8192 275.0295,356.6086 275.3960,356.6086
C275.5613,356.6086 275.7166,356.6605 275.8615,356.7660
C276.0072,356.8697 276.1356,357.0222 276.2473,357.2203
C276.3629,357.0253 276.4933,356.8728 276.6370,356.7674
C276.7819,356.6619 276.9279,356.6086 277.0767,356.6086
C277.4594,356.6086 277.7666,356.8161 277.9988,357.2331
C278.2304,357.6484 278.3458,358.2068 278.3458,358.9084
L278.3458,361.3734
L277.4489,361.3734
L277.4489,358.6819
C277.4489,358.4914 277.4137,358.3341 277.3437,358.2099
C277.2729,358.0858 277.1844,358.0228 277.0756,358.0228
C276.9676,358.0228 276.8771,358.0858 276.8051,358.2099
C276.7334,358.3341 276.6974,358.4914 276.6974,358.6819
L276.6974,361.3734
L275.8059,361.3734
L275.8059,358.6819
C275.8059,358.4914 275.7702,358.3341 275.6982,358.2099
C275.6262,358.0858 275.5349,358.0228 275.4249,358.0228
C275.3164,358.0228 275.2279,358.0858 275.1568,358.2099
C275.0868,358.3341 275.0519,358.4914 275.0519,358.6819
L275.0519,361.3734
L274.1604,361.3734
Z
Z
M279.6650,359.0232
C279.6650,359.2874 279.7163,359.5139 279.8186,359.6995
C279.9215,359.8852 280.0449,359.9782 280.1889,359.9782
C280.3357,359.9782 280.4598,359.8852 280.5650,359.6995
C280.6690,359.5139 280.7215,359.2874 280.7215,359.0232
C280.7215,358.7604 280.6690,358.5339 280.5650,358.3483
C280.4598,358.1626 280.3357,358.0699 280.1889,358.0699
C280.0449,358.0699 279.9215,358.1626 279.8186,358.3483
C279.7163,358.5339 279.6650,358.7604 279.6650,359.0232
Z
Z
M278.7307,359.0325
C278.7307,358.7071 278.7678,358.3987 278.8407,358.1093
C278.9135,357.8182 279.0215,357.5540 279.1633,357.3133
C279.3025,357.0868 279.4598,356.9122 279.6347,356.7909
C279.8107,356.6699 279.9955,356.6086 280.1889,356.6086
C280.3861,356.6086 280.5738,356.6699 280.7515,356.7909
C280.9284,356.9122 281.0860,357.0868 281.2221,357.3133
C281.3610,357.5446 281.4659,357.8057 281.5387,358.0997
C281.6107,358.3925 281.6467,358.7037 281.6467,359.0325
C281.6467,359.3614 281.6107,359.6729 281.5387,359.9654
C281.4659,360.2597 281.3610,360.5207 281.2221,360.7520
C281.0860,360.9785 280.9284,361.1531 280.7515,361.2742
C280.5738,361.3955 280.3861,361.4567 280.1889,361.4567
C279.9955,361.4567 279.8107,361.3955 279.6347,361.2742
C279.4598,361.1531 279.3025,360.9785 279.1633,360.7520
C279.0215,360.5114 278.9135,360.2472 278.8407,359.9561
C278.7678,359.6666 278.7307,359.3582 278.7307,359.0325
Z
Z
M282.8772,359.0232
C282.8772,359.2874 282.9288,359.5139 283.0309,359.6995
C283.1340,359.8852 283.2574,359.9782 283.4011,359.9782
C283.5479,359.9782 283.6723,359.8852 283.7775,359.6995
C283.8815,359.5139 283.9337,359.2874 283.9337,359.0232
C283.9337,358.7604 283.8815,358.5339 283.7775,358.3483
C283.6723,358.1626 283.5479,358.0699 283.4011,358.0699
C283.2574,358.0699 283.1340,358.1626 283.0309,358.3483
C282.9288,358.5339 282.8772,358.7604 282.8772,359.0232
Z
Z
M281.9432,359.0325
C281.9432,358.7071 281.9803,358.3987 282.0532,358.1093
C282.1260,357.8182 282.2338,357.5540 282.3758,357.3133
C282.5147,357.0868 282.6723,356.9122 282.8472,356.7909
C283.0229,356.6699 283.2077,356.6086 283.4011,356.6086
C283.5986,356.6086 283.7863,356.6699 283.9640,356.7909
C284.1409,356.9122 284.2982,357.0868 284.4343,357.3133
C284.5735,357.5446 284.6784,357.8057 284.7512,358.0997
C284.8232,358.3925 284.8592,358.7037 284.8592,359.0325
C284.8592,359.3614 284.8232,359.6729 284.7512,359.9654
C284.6784,360.2597 284.5735,360.5207 284.4343,360.7520
C284.2982,360.9785 284.1409,361.1531 283.9640,361.2742
C283.7863,361.3955 283.5986,361.4567 283.4011,361.4567
C283.2077,361.4567 283.0229,361.3955 282.8472,361.2742
C282.6723,361.1531 282.5147,360.9785 282.3758,360.7520
C282.2338,360.5114 282.1260,360.2472 282.0532,359.9561
C281.9803,359.6666 281.9432,359.3582 281.9432,359.0325
Z
Z
M285.2617,355.5561
L286.1674,355.5561
L286.1674,356.6996
L286.8820,356.6996
L286.8820,358.0685
L286.1674,358.0685
L286.1674,359.5439
C286.1674,359.7092 286.1898,359.8271 286.2346,359.8946
C286.2794,359.9623 286.3570,359.9955 286.4687,359.9955
L286.8820,359.9955
L286.8820,361.3734
L286.5455,361.3734
C286.1053,361.3734 285.7816,361.2178 285.5735,360.9062
C285.3658,360.5930 285.2617,360.1040 285.2617,359.4370
L285.2617,355.5561
Z
Z
M287.3310,361.3734
L287.3310,354.7743
L288.2370,354.7743
L288.2370,357.0049
C288.3283,356.8728 288.4294,356.7736 288.5411,356.7076
C288.6540,356.6415 288.7713,356.6086 288.8949,356.6086
C289.2254,356.6086 289.4888,356.8147 289.6852,357.2269
C289.8816,357.6373 289.9797,358.1989 289.9797,358.9084
L289.9797,361.3734
L289.0766,361.3734
L289.0766,358.7700
C289.0766,358.5512 289.0369,358.3735 288.9581,358.2366
C288.8793,358.0997 288.7784,358.0322 288.6559,358.0322
C288.5343,358.0322 288.4343,358.0997 288.3555,358.2366
C288.2769,358.3735 288.2370,358.5512 288.2370,358.7700
L288.2370,361.3734
L287.3310,361.3734
Z
Z
M292.1318,361.3734
L292.1318,357.1245
C292.1318,356.3853 292.2687,355.7874 292.5420,355.3342
C292.8149,354.8812 293.1755,354.6547 293.6237,354.6547
C294.0358,354.6547 294.3811,354.8767 294.6589,355.3203
C294.9369,355.7653 295.0758,356.3113 295.0758,356.9593
C295.0758,357.6498 294.9262,358.2068 294.6277,358.6283
C294.3283,359.0484 293.9309,359.2590 293.4332,359.2590
L293.3283,359.2590
L293.3283,357.6830
L293.4848,357.6830
C293.6577,357.6830 293.7929,357.6169 293.8918,357.4831
C293.9902,357.3493 294.0398,357.1671 294.0398,356.9357
C294.0398,356.7328 293.9990,356.5644 293.9162,356.4306
C293.8337,356.2971 293.7288,356.2311 293.6013,356.2311
C293.4584,356.2311 293.3478,356.3082 293.2679,356.4638
C293.1883,356.6194 293.1483,356.8365 293.1483,357.1166
L293.1483,361.3734
L292.1318,361.3734
Z
Z
M295.3780,361.3734
L295.3780,356.6996
L296.2123,356.6996
L296.2123,357.3998
C296.3032,357.1574 296.4212,356.9797 296.5649,356.8680
C296.7097,356.7563 296.8934,356.6996 297.1179,356.6996
L297.2259,356.6996
L297.2259,358.1138
L297.1860,358.1138
C296.8574,358.1138 296.6213,358.2320 296.4753,358.4665
C296.3307,358.7023 296.2576,359.0844 296.2576,359.6162
L296.2576,361.3734
L295.3780,361.3734
Z
Z
M298.4329,359.0232
C298.4329,359.2874 298.4845,359.5139 298.5866,359.6995
C298.6897,359.8852 298.8130,359.9782 298.9568,359.9782
C299.1036,359.9782 299.2280,359.8852 299.3332,359.6995
C299.4372,359.5139 299.4894,359.2874 299.4894,359.0232
C299.4894,358.7604 299.4372,358.5339 299.3332,358.3483
C299.2280,358.1626 299.1036,358.0699 298.9568,358.0699
C298.8130,358.0699 298.6897,358.1626 298.5866,358.3483
C298.4845,358.5339 298.4329,358.7604 298.4329,359.0232
Z
Z
M297.4989,359.0325
C297.4989,358.7071 297.5360,358.3987 297.6089,358.1093
C297.6817,357.8182 297.7894,357.5540 297.9315,357.3133
C298.0704,357.0868 298.2280,356.9122 298.4029,356.7909
C298.5786,356.6699 298.7634,356.6086 298.9568,356.6086
C299.1543,356.6086 299.3420,356.6699 299.5197,356.7909
C299.6966,356.9122 299.8539,357.0868 299.9900,357.3133
C300.1292,357.5446 300.2340,357.8057 300.3069,358.0997
C300.3789,358.3925 300.4149,358.7037 300.4149,359.0325
C300.4149,359.3614 300.3789,359.6729 300.3069,359.9654
C300.2340,360.2597 300.1292,360.5207 299.9900,360.7520
C299.8539,360.9785 299.6966,361.1531 299.5197,361.2742
C299.3420,361.3955 299.1543,361.4567 298.9568,361.4567
C298.7634,361.4567 298.5786,361.3955 298.4029,361.2742
C298.2280,361.1531 298.0704,360.9785 297.9315,360.7520
C297.7894,360.5114 297.6817,360.2472 297.6089,359.9561
C297.5360,359.6666 297.4989,359.3582 297.4989,359.0325
Z
Z
M302.7419,358.1235
L302.3461,358.1235
C302.1296,358.1235 301.9572,358.2068 301.8300,358.3752
C301.7027,358.5419 301.6397,358.7652 301.6397,359.0405
C301.6397,359.3174 301.7027,359.5391 301.8300,359.7026
C301.9572,359.8679 302.1296,359.9498 302.3461,359.9498
L302.7419,359.9498
L302.7419,361.3734
L302.4026,361.3734
C301.8903,361.3734 301.4802,361.1594 301.1732,360.7299
C300.8650,360.3022 300.7114,359.7358 300.7114,359.0325
C300.7114,358.3310 300.8650,357.7680 301.1732,357.3400
C301.4802,356.9136 301.8903,356.6996 302.4026,356.6996
L302.7419,356.6996
L302.7419,358.1235
Z
Z
M306.0417,359.6366
C305.8900,360.2171 305.6771,360.6656 305.4042,360.9816
C305.1309,361.2980 304.8199,361.4567 304.4730,361.4567
C304.2814,361.4567 304.0965,361.3955 303.9188,361.2742
C303.7419,361.1531 303.5846,360.9785 303.4474,360.7520
C303.3054,360.5176 303.1977,360.2548 303.1248,359.9640
C303.0520,359.6712 303.0148,359.3614 303.0148,359.0325
C303.0148,358.7037 303.0520,358.3939 303.1248,358.1014
C303.1977,357.8102 303.3054,357.5477 303.4474,357.3133
C303.5846,357.0900 303.7399,356.9168 303.9160,356.7974
C304.0920,356.6778 304.2777,356.6180 304.4730,356.6180
C304.7655,356.6180 305.0280,356.7438 305.2613,356.9939
C305.4946,357.2442 305.6868,357.6090 305.8364,358.0889
L304.4390,359.6272
L304.0889,358.7700
L304.8452,357.9188
C304.7956,357.8655 304.7451,357.8261 304.6915,357.8009
C304.6382,357.7742 304.5838,357.7615 304.5263,357.7615
C304.3485,357.7615 304.1969,357.8717 304.0713,358.0903
C303.9460,358.3106 303.8839,358.5796 303.8839,358.8990
C303.8839,359.2244 303.9452,359.4983 304.0685,359.7185
C304.1918,359.9402 304.3426,360.0505 304.5214,360.0505
C304.6887,360.0505 304.8432,359.9685 304.9872,359.8067
C305.1300,359.6431 305.2514,359.4070 305.3526,359.0972
L306.0417,359.6366
Z
Z
M306.2750,360.0505
L307.3657,360.0505
C307.4210,360.0505 307.4618,360.0363 307.4899,360.0062
C307.5171,359.9782 307.5307,359.9325 307.5307,359.8710
C307.5307,359.8333 307.5231,359.7987 307.5083,359.7642
C307.4930,359.7310 307.4734,359.7043 307.4511,359.6871
L307.0301,359.4008
C306.7900,359.2372 306.6131,359.0405 306.4975,358.8109
C306.3821,358.5796 306.3237,358.3091 306.3237,357.9945
C306.3237,357.5917 306.4141,357.2756 306.5939,357.0457
C306.7747,356.8147 307.0244,356.6996 307.3431,356.6996
L308.3287,356.6996
L308.3287,357.9582
L307.3538,357.9582
C307.3141,357.9582 307.2810,357.9755 307.2546,358.0087
C307.2285,358.0432 307.2149,358.0858 307.2149,358.1376
C307.2149,358.1722 307.2226,358.2068 307.2373,358.2414
C307.2529,358.2777 307.2713,358.3012 307.2917,358.3137
L307.6931,358.5889
C307.9701,358.7763 308.1713,358.9855 308.2958,359.2137
C308.4202,359.4433 308.4823,359.7185 308.4823,360.0411
C308.4823,360.2659 308.4511,360.4706 308.3902,360.6545
C308.3278,360.8385 308.2402,360.9944 308.1266,361.1203
C308.0390,361.2098 307.9380,361.2742 307.8232,361.3136
C307.7076,361.3530 307.5114,361.3734 307.2322,361.3734
L306.2750,361.3734
L306.2750,360.0505
Z
Z
M308.8236,360.0505
L309.9141,360.0505
C309.9696,360.0505 310.0105,360.0363 310.0385,360.0062
C310.0657,359.9782 310.0793,359.9325 310.0793,359.8710
C310.0793,359.8333 310.0717,359.7987 310.0569,359.7642
C310.0416,359.7310 310.0221,359.7043 309.9997,359.6871
L309.5787,359.4008
C309.3386,359.2372 309.1618,359.0405 309.0461,358.8109
C308.9305,358.5796 308.8723,358.3091 308.8723,357.9945
C308.8723,357.5917 308.9625,357.2756 309.1422,357.0457
C309.3233,356.8147 309.5731,356.6996 309.8917,356.6996
L310.8773,356.6996
L310.8773,357.9582
L309.9025,357.9582
C309.8628,357.9582 309.8296,357.9755 309.8032,358.0087
C309.7772,358.0432 309.7633,358.0858 309.7633,358.1376
C309.7633,358.1722 309.7712,358.2068 309.7860,358.2414
C309.8015,358.2777 309.8197,358.3012 309.8404,358.3137
L310.2418,358.5889
C310.5187,358.7763 310.7200,358.9855 310.8444,359.2137
C310.9689,359.4433 311.0309,359.7185 311.0309,360.0411
C311.0309,360.2659 310.9997,360.4706 310.9385,360.6545
C310.8764,360.8385 310.7889,360.9944 310.6752,361.1203
C310.5876,361.2098 310.4867,361.2742 310.3719,361.3136
C310.2562,361.3530 310.0601,361.3734 309.7809,361.3734
L308.8236,361.3734
L308.8236,360.0505
Z
Z
M311.2875,362.7797
L311.6123,359.9498
L312.6008,359.9498
L311.9882,362.7797
L311.2875,362.7797
Z
Z
M314.6720,361.3734
L314.6720,359.7970
L316.0755,359.7970
C316.1571,359.7970 316.2203,359.7690 316.2651,359.7137
C316.3099,359.6587 316.3323,359.5785 316.3323,359.4747
C316.3323,359.3818 316.3099,359.2905 316.2640,359.2009
C316.2183,359.1096 316.1486,359.0169 316.0531,358.9209
L315.2699,358.1563
C315.0918,357.9786 314.9490,357.7490 314.8430,357.4675
C314.7372,357.1875 314.6837,356.8980 314.6837,356.5990
C314.6837,356.3096 314.7137,356.0485 314.7749,355.8141
C314.8353,355.5782 314.9254,355.3784 315.0451,355.2117
C315.1570,355.0527 315.2951,354.9396 315.4584,354.8733
C315.6216,354.8072 315.8858,354.7743 316.2526,354.7743
L317.1835,354.7743
L317.1835,356.2860
L316.1154,356.2860
C315.9677,356.2860 315.8657,356.3050 315.8093,356.3442
C315.7537,356.3819 315.7257,356.4482 315.7257,356.5392
C315.7257,356.6290 315.7469,356.7169 315.7909,356.8051
C315.8345,356.8915 315.9026,356.9797 315.9930,357.0695
L316.7589,357.8071
C316.9774,358.0211 317.1436,358.2760 317.2575,358.5716
C317.3712,358.8659 317.4284,359.1867 317.4284,359.5346
C317.4284,359.8333 317.3896,360.1086 317.3119,360.3634
C317.2343,360.6199 317.1251,360.8260 316.9874,360.9865
C316.8658,361.1248 316.7289,361.2240 316.5769,361.2838
C316.4253,361.3436 316.1843,361.3734 315.8538,361.3734
L315.7909,361.3734
L314.6720,361.3734
Z
Z
M320.7886,359.6366
C320.6370,360.2171 320.4241,360.6656 320.1511,360.9816
C319.8779,361.2980 319.5669,361.4567 319.2199,361.4567
C319.0283,361.4567 318.8438,361.3955 318.6658,361.2742
C318.4889,361.1531 318.3316,360.9785 318.1944,360.7520
C318.0526,360.5176 317.9446,360.2548 317.8718,359.9640
C317.7989,359.6712 317.7618,359.3614 317.7618,359.0325
C317.7618,358.7037 317.7989,358.3939 317.8718,358.1014
C317.9446,357.8102 318.0526,357.5477 318.1944,357.3133
C318.3316,357.0900 318.4872,356.9168 318.6629,356.7974
C318.8390,356.6778 319.0246,356.6180 319.2199,356.6180
C319.5125,356.6180 319.7750,356.7438 320.0083,356.9939
C320.2415,357.2442 320.4337,357.6090 320.5837,358.0889
L319.1859,359.6272
L318.8358,358.7700
L319.5921,357.9188
C319.5428,357.8655 319.4921,357.8261 319.4388,357.8009
C319.3852,357.7742 319.3308,357.7615 319.2732,357.7615
C319.0955,357.7615 318.9438,357.8717 318.8186,358.0903
C318.6930,358.3106 318.6309,358.5796 318.6309,358.8990
C318.6309,359.2244 318.6921,359.4983 318.8157,359.7185
C318.9390,359.9402 319.0895,360.0505 319.2687,360.0505
C319.4357,360.0505 319.5901,359.9685 319.7341,359.8067
C319.8770,359.6431 319.9983,359.4070 320.0995,359.0972
L320.7886,359.6366
Z
Z
M323.0186,358.1235
L322.6229,358.1235
C322.4061,358.1235 322.2340,358.2068 322.1067,358.3752
C321.9795,358.5419 321.9163,358.7652 321.9163,359.0405
C321.9163,359.3174 321.9795,359.5391 322.1067,359.7026
C322.2340,359.8679 322.4061,359.9498 322.6229,359.9498
L323.0186,359.9498
L323.0186,361.3734
L322.6793,361.3734
C322.1668,361.3734 321.7569,361.1594 321.4497,360.7299
C321.1415,360.3022 320.9879,359.7358 320.9879,359.0325
C320.9879,358.3310 321.1415,357.7680 321.4497,357.3400
C321.7569,356.9136 322.1668,356.6996 322.6793,356.6996
L323.0186,356.6996
L323.0186,358.1235
Z
Z
M324.2829,356.6996
L324.2829,359.3047
C324.2829,359.5235 324.3229,359.7012 324.4014,359.8381
C324.4802,359.9748 324.5814,360.0425 324.7038,360.0425
C324.8271,360.0425 324.9283,359.9748 325.0060,359.8381
C325.0840,359.7012 325.1228,359.5235 325.1228,359.3047
L325.1228,356.6996
L326.0288,356.6996
L326.0288,359.0705
C326.0288,359.7970 325.9071,360.3776 325.6651,360.8087
C325.4230,361.2413 325.1032,361.4567 324.7050,361.4567
C324.4861,361.4567 324.2840,361.3813 324.0972,361.2285
C323.9116,361.0760 323.7542,360.8575 323.6250,360.5726
C323.5394,360.3793 323.4773,360.1653 323.4385,359.9308
C323.3993,359.6981 323.3801,359.4101 323.3801,359.0705
L323.3801,356.6996
L324.2829,356.6996
Z
Z
M326.5350,361.3734
L326.5350,356.6996
L327.3690,356.6996
L327.3690,357.3998
C327.4603,357.1574 327.5779,356.9797 327.7219,356.8680
C327.8667,356.7563 328.0504,356.6996 328.2749,356.6996
L328.3829,356.6996
L328.3829,358.1138
L328.3430,358.1138
C328.0141,358.1138 327.7783,358.2320 327.6323,358.4665
C327.4877,358.7023 327.4146,359.0844 327.4146,359.6162
L327.4146,361.3734
L326.5350,361.3734
Z
Z
M331.6827,359.6366
C331.5308,360.2171 331.3182,360.6656 331.0449,360.9816
C330.7720,361.2980 330.4607,361.4567 330.1138,361.4567
C329.9224,361.4567 329.7376,361.3955 329.5599,361.2742
C329.3830,361.1531 329.2254,360.9785 329.0882,360.7520
C328.9465,360.5176 328.8385,360.2548 328.7656,359.9640
C328.6928,359.6712 328.6559,359.3614 328.6559,359.0325
C328.6559,358.7037 328.6928,358.3939 328.7656,358.1014
C328.8385,357.8102 328.9465,357.5477 329.0882,357.3133
C329.2254,357.0900 329.3810,356.9168 329.5568,356.7974
C329.7328,356.6778 329.9185,356.6180 330.1138,356.6180
C330.4066,356.6180 330.6688,356.7438 330.9021,356.9939
C331.1354,357.2442 331.3278,357.6090 331.4775,358.0889
L330.0797,359.6272
L329.7300,358.7700
L330.4862,357.9188
C330.4366,357.8655 330.3859,357.8261 330.3326,357.8009
C330.2790,357.7742 330.2246,357.7615 330.1673,357.7615
C329.9893,357.7615 329.8377,357.8717 329.7124,358.0903
C329.5871,358.3106 329.5247,358.5796 329.5247,358.8990
C329.5247,359.2244 329.5860,359.4983 329.7095,359.7185
C329.8329,359.9402 329.9834,360.0505 330.1625,360.0505
C330.3295,360.0505 330.4840,359.9685 330.6280,359.8067
C330.7708,359.6431 330.8924,359.4070 330.9934,359.0972
L331.6827,359.6366
Z
Z
M333.6557,361.3734
L333.6557,356.9859
C333.6557,356.2373 333.7724,355.6803 334.0057,355.3186
C334.2399,354.9552 334.5976,354.7743 335.0795,354.7743
L335.8029,354.7743
L335.8029,356.3144
L335.0962,356.3144
C334.9562,356.3144 334.8505,356.3725 334.7793,356.4873
C334.7084,356.6021 334.6724,356.7722 334.6724,356.9956
L334.6724,357.4281
L335.8029,357.4281
L335.8029,358.9682
L334.6724,358.9682
L334.6724,361.3734
L333.6557,361.3734
Z
Z
M337.0878,356.6996
L337.0878,359.3047
C337.0878,359.5235 337.1275,359.7012 337.2063,359.8381
C337.2851,359.9748 337.3860,360.0425 337.5085,360.0425
C337.6321,360.0425 337.7330,359.9748 337.8110,359.8381
C337.8886,359.7012 337.9275,359.5235 337.9275,359.3047
L337.9275,356.6996
L338.8334,356.6996
L338.8334,359.0705
C338.8334,359.7970 338.7121,360.3776 338.4700,360.8087
C338.2279,361.2413 337.9082,361.4567 337.5096,361.4567
C337.2908,361.4567 337.0887,361.3813 336.9022,361.2285
C336.7165,361.0760 336.5589,360.8575 336.4296,360.5726
C336.3443,360.3793 336.2820,360.1653 336.2431,359.9308
C336.2043,359.6981 336.1847,359.4101 336.1847,359.0705
L336.1847,356.6996
L337.0878,356.6996
Z
Z
M339.3232,355.5561
L340.2292,355.5561
L340.2292,356.6996
L340.9435,356.6996
L340.9435,358.0685
L340.2292,358.0685
L340.2292,359.5439
C340.2292,359.7092 340.2516,359.8271 340.2964,359.8946
C340.3409,359.9623 340.4186,359.9955 340.5305,359.9955
L340.9435,359.9955
L340.9435,361.3734
L340.6073,361.3734
C340.1671,361.3734 339.8434,361.2178 339.6353,360.9062
C339.4273,360.5930 339.3232,360.1040 339.3232,359.4370
L339.3232,355.5561
Z
Z
M342.2616,356.6996
L342.2616,359.3047
C342.2616,359.5235 342.3016,359.7012 342.3801,359.8381
C342.4589,359.9748 342.5601,360.0425 342.6826,360.0425
C342.8059,360.0425 342.9071,359.9748 342.9848,359.8381
C343.0624,359.7012 343.1015,359.5235 343.1015,359.3047
L343.1015,356.6996
L344.0072,356.6996
L344.0072,359.0705
C344.0072,359.7970 343.8859,360.3776 343.6438,360.8087
C343.4017,361.2413 343.0820,361.4567 342.6834,361.4567
C342.4649,361.4567 342.2628,361.3813 342.0760,361.2285
C341.8903,361.0760 341.7327,360.8575 341.6034,360.5726
C341.5181,360.3793 341.4560,360.1653 341.4169,359.9308
C341.3781,359.6981 341.3588,359.4101 341.3588,359.0705
L341.3588,356.6996
L342.2616,356.6996
Z
Z
M344.5138,361.3734
L344.5138,356.6996
L345.3477,356.6996
L345.3477,357.3998
C345.4390,357.1574 345.5566,356.9797 345.7003,356.8680
C345.8452,356.7563 346.0292,356.6996 346.2537,356.6996
L346.3614,356.6996
L346.3614,358.1138
L346.3217,358.1138
C345.9929,358.1138 345.7568,358.2320 345.6111,358.4665
C345.4662,358.7023 345.3934,359.0844 345.3934,359.6162
L345.3934,361.3734
L344.5138,361.3734
Z
Z
M349.6612,359.6366
C349.5095,360.2171 349.2969,360.6656 349.0237,360.9816
C348.7504,361.2980 348.4395,361.4567 348.0925,361.4567
C347.9012,361.4567 347.7163,361.3955 347.5386,361.2742
C347.3617,361.1531 347.2041,360.9785 347.0669,360.7520
C346.9252,360.5176 346.8172,360.2548 346.7443,359.9640
C346.6715,359.6712 346.6346,359.3614 346.6346,359.0325
C346.6346,358.7037 346.6715,358.3939 346.7443,358.1014
C346.8172,357.8102 346.9252,357.5477 347.0669,357.3133
C347.2041,357.0900 347.3597,356.9168 347.5355,356.7974
C347.7115,356.6778 347.8972,356.6180 348.0925,356.6180
C348.3850,356.6180 348.6475,356.7438 348.8808,356.9939
C349.1141,357.2442 349.3066,357.6090 349.4563,358.0889
L348.0585,359.6272
L347.7087,358.7700
L348.4650,357.9188
C348.4154,357.8655 348.3646,357.8261 348.3113,357.8009
C348.2578,357.7742 348.2033,357.7615 348.1458,357.7615
C347.9681,357.7615 347.8164,357.8717 347.6911,358.0903
C347.5655,358.3106 347.5035,358.5796 347.5035,358.8990
C347.5035,359.2244 347.5647,359.4983 347.6883,359.7185
C347.8116,359.9402 347.9621,360.0505 348.1413,360.0505
C348.3082,360.0505 348.4627,359.9685 348.6067,359.8067
C348.7496,359.6431 348.8709,359.4070 348.9721,359.0972
L349.6612,359.6366
Z
Z
M349.9549,360.5615
C349.9549,360.2959 350.0113,360.0709 350.1230,359.8900
C350.2346,359.7092 350.3738,359.6179 350.5391,359.6179
C350.7032,359.6179 350.8424,359.7092 350.9541,359.8900
C351.0658,360.0709 351.1222,360.2959 351.1222,360.5615
C351.1222,360.8198 351.0649,361.0414 350.9512,361.2240
C350.8373,361.4066 350.6995,361.4975 350.5391,361.4975
C350.3778,361.4975 350.2397,361.4066 350.1261,361.2240
C350.0124,361.0414 349.9549,360.8198 349.9549,360.5615
Z" 
style="fill-rule: evenodd; fill: #142848; "/>
<path d=" 
M182.0968,271.1415
L420.2070,271.1415
L420.2070,404.3699
L182.0968,404.3699
L182.0968,271.1415
Z" 
style="fill: none; "/>
</svg>
